<svg id="svg" version="1.1" xmlns="http://www.w3.org/2000/svg" xmlns:xlink="http://www.w3.org/1999/xlink" width="400" height="400" viewBox="0, 0, 400,400"><g id="svgg"><path id="path0" d="" stroke="none" fill="#c5b0a4" fill-rule="evenodd"></path><path id="path1" d="M69.400 17.596 C 65.426 17.866,63.002 18.689,60.881 20.488 C 60.506 20.806,59.550 21.363,58.755 21.726 C 57.960 22.088,57.083 22.659,56.806 22.993 C 56.529 23.327,56.125 23.600,55.909 23.600 C 55.570 23.600,54.782 24.159,52.517 26.006 C 52.251 26.223,51.828 26.400,51.577 26.400 C 51.326 26.400,50.617 26.940,50.000 27.600 C 49.383 28.260,48.719 28.800,48.523 28.800 C 48.327 28.800,47.372 29.610,46.400 30.600 C 45.428 31.590,44.444 32.400,44.212 32.400 C 43.664 32.400,32.400 43.679,32.400 44.227 C 32.400 44.456,31.770 45.254,31.000 46.000 C 30.230 46.746,29.600 47.519,29.600 47.718 C 29.600 47.917,29.060 48.583,28.400 49.200 C 27.740 49.817,27.200 50.543,27.200 50.814 C 27.200 51.084,26.885 51.600,26.500 51.959 C 25.709 52.696,24.975 53.793,24.424 55.061 C 24.218 55.535,23.870 56.033,23.650 56.169 C 23.431 56.305,22.759 57.447,22.157 58.708 C 21.555 59.968,20.804 61.306,20.487 61.681 C 20.170 62.055,19.481 63.211,18.955 64.249 L 18.000 66.136 18.000 203.000 L 18.000 339.864 18.955 341.751 C 19.481 342.789,20.165 343.945,20.476 344.319 C 20.787 344.694,21.473 345.900,22.000 347.000 C 22.527 348.100,23.222 349.316,23.544 349.703 C 24.190 350.479,24.966 351.766,25.541 353.016 C 25.748 353.465,26.205 354.073,26.558 354.365 C 26.911 354.658,27.200 355.074,27.200 355.288 C 27.200 355.503,27.740 356.183,28.400 356.800 C 29.060 357.417,29.600 358.144,29.600 358.416 C 29.600 358.688,30.230 359.448,31.000 360.106 C 31.770 360.764,32.400 361.506,32.400 361.756 C 32.400 362.342,43.667 373.600,44.254 373.600 C 44.498 373.600,45.445 374.410,46.357 375.400 C 47.270 376.390,48.211 377.200,48.448 377.200 C 48.685 377.200,49.383 377.740,50.000 378.400 C 50.617 379.060,51.389 379.600,51.718 379.600 C 52.046 379.600,52.410 379.850,52.528 380.156 C 52.645 380.462,53.322 381.002,54.032 381.356 C 55.762 382.219,351.767 382.362,353.301 381.500 C 353.791 381.225,354.484 380.685,354.843 380.300 C 355.201 379.915,355.716 379.600,355.986 379.600 C 356.257 379.600,356.983 379.060,357.600 378.400 C 358.217 377.740,358.881 377.200,359.077 377.200 C 359.273 377.200,360.228 376.390,361.200 375.400 C 362.172 374.410,363.157 373.600,363.389 373.600 C 363.934 373.600,374.800 362.722,374.800 362.176 C 374.800 361.948,375.520 361.059,376.400 360.200 C 377.280 359.341,378.000 358.476,378.000 358.279 C 378.000 358.082,378.540 357.417,379.200 356.800 C 379.860 356.183,380.400 355.465,380.400 355.204 C 380.400 354.942,380.788 354.414,381.263 354.030 C 382.772 352.807,382.819 347.771,382.708 198.953 C 382.601 55.850,382.591 54.185,381.814 52.900 C 381.381 52.185,380.886 51.600,380.714 51.600 C 380.541 51.600,380.400 51.364,380.400 51.075 C 380.400 50.786,379.860 50.032,379.200 49.400 C 378.540 48.768,378.000 48.051,378.000 47.806 C 378.000 47.562,377.280 46.659,376.400 45.800 C 375.520 44.941,374.800 44.047,374.800 43.813 C 374.800 43.268,363.924 32.400,363.378 32.400 C 363.152 32.400,362.172 31.590,361.200 30.600 C 360.228 29.610,359.235 28.800,358.992 28.800 C 358.749 28.800,358.032 28.260,357.400 27.600 C 356.768 26.940,356.092 26.400,355.898 26.400 C 355.488 26.400,352.663 24.342,352.467 23.900 C 352.393 23.735,352.054 23.600,351.714 23.600 C 351.373 23.600,350.803 23.276,350.447 22.880 C 350.091 22.483,349.133 21.849,348.317 21.469 C 347.501 21.089,346.729 20.609,346.601 20.402 C 346.474 20.195,345.161 19.435,343.684 18.713 L 341.000 17.400 207.200 17.362 C 133.610 17.341,71.600 17.446,69.400 17.596 M289.603 38.640 C 293.923 41.611,297.558 45.319,300.741 50.000 C 308.454 61.343,307.134 68.286,293.348 88.886 C 284.678 101.840,284.687 101.818,284.710 109.600 C 284.747 122.254,287.659 128.837,297.626 138.798 C 303.982 145.149,307.200 149.198,309.046 153.169 C 310.017 155.257,310.240 155.777,311.154 158.100 C 311.504 158.987,311.919 160.470,312.808 164.000 C 313.469 166.625,313.762 180.339,313.249 184.600 C 312.680 189.326,311.848 194.227,310.840 198.800 C 310.622 199.790,310.330 201.140,310.191 201.800 C 310.053 202.460,309.790 203.360,309.607 203.800 C 309.425 204.240,308.968 205.765,308.592 207.188 C 307.321 212.006,304.821 219.202,303.553 221.695 C 303.359 222.077,303.200 222.583,303.200 222.820 C 303.200 223.556,297.653 235.132,295.543 238.800 C 292.359 244.334,287.273 250.800,286.106 250.800 C 285.375 250.800,285.441 250.416,287.408 243.200 C 288.861 237.868,289.302 236.133,290.000 233.000 C 290.196 232.120,290.547 230.590,290.779 229.600 C 292.421 222.612,294.561 208.696,295.393 199.600 C 297.044 181.553,295.285 162.975,291.019 153.400 C 289.204 149.326,288.689 148.340,287.129 145.951 C 284.203 141.468,278.374 134.673,275.159 131.998 C 270.722 128.306,267.712 127.628,264.289 129.550 C 263.530 129.976,262.480 130.567,261.955 130.862 C 261.430 131.158,260.910 131.500,260.800 131.622 C 260.426 132.038,251.808 137.900,250.000 138.969 C 239.539 145.152,232.890 145.179,220.400 139.088 C 212.142 135.061,206.043 130.588,201.500 125.226 C 199.201 122.513,199.477 122.218,202.889 123.744 C 211.580 127.633,212.209 127.423,222.367 117.247 C 229.717 109.884,235.384 105.200,236.942 105.200 C 237.278 105.200,237.664 105.020,237.800 104.800 C 237.942 104.570,240.063 104.400,242.800 104.400 C 245.537 104.400,247.658 104.570,247.800 104.800 C 247.936 105.020,248.478 105.200,249.005 105.200 C 249.531 105.200,250.466 105.402,251.081 105.650 C 251.697 105.897,252.560 106.239,253.000 106.408 C 255.430 107.347,258.813 109.025,260.320 110.041 C 261.266 110.678,262.109 111.200,262.192 111.200 C 262.377 111.200,262.018 110.043,260.437 105.544 C 257.720 97.818,256.921 90.831,258.245 86.373 C 259.086 83.541,262.464 80.176,270.400 74.267 C 289.721 59.879,289.897 59.507,286.964 39.100 C 286.632 36.789,286.856 36.750,289.603 38.640 M211.000 78.808 C 217.067 79.370,224.625 80.534,229.000 81.581 C 232.451 82.406,233.862 82.765,235.400 83.206 C 236.280 83.459,237.497 83.762,238.105 83.879 C 238.713 83.996,239.308 84.251,239.429 84.446 C 239.549 84.641,240.076 84.800,240.600 84.800 C 241.124 84.800,241.664 84.980,241.800 85.200 C 241.936 85.420,242.397 85.600,242.824 85.600 C 244.059 85.600,243.723 86.275,242.350 86.550 C 241.663 86.688,238.918 86.806,236.250 86.812 C 226.914 86.836,212.171 88.438,203.600 90.361 C 202.610 90.584,200.900 90.943,199.800 91.160 C 196.003 91.909,188.207 94.037,185.000 95.199 C 184.560 95.359,183.480 95.706,182.600 95.971 C 180.969 96.462,180.465 96.655,178.000 97.728 C 177.230 98.063,175.700 98.691,174.600 99.124 C 171.568 100.316,165.418 103.318,165.267 103.680 C 165.193 103.856,164.990 104.000,164.815 104.000 C 164.095 104.000,156.103 109.222,153.837 111.173 C 149.217 115.149,145.563 118.675,144.067 120.600 C 143.555 121.260,142.562 122.430,141.862 123.200 C 138.930 126.427,132.014 136.055,129.221 140.800 C 125.079 147.836,124.075 149.823,121.844 155.400 C 120.788 158.040,119.761 160.513,119.562 160.895 C 119.363 161.277,119.200 161.941,119.200 162.371 C 119.200 162.801,119.040 163.252,118.844 163.373 C 118.649 163.494,118.391 164.179,118.273 164.896 C 117.911 167.084,117.557 168.561,117.193 169.400 C 115.845 172.506,115.222 191.072,116.440 191.825 C 116.638 191.947,116.800 192.579,116.800 193.229 C 116.800 193.879,116.959 194.723,117.153 195.105 C 117.348 195.487,117.729 196.340,118.000 197.000 C 119.379 200.352,121.610 203.217,123.738 204.368 C 125.393 205.264,130.129 205.562,130.600 204.800 C 130.736 204.580,131.182 204.400,131.590 204.400 C 133.204 204.400,143.748 197.954,146.000 195.590 C 146.110 195.475,148.180 193.772,150.600 191.806 C 153.020 189.841,155.090 188.131,155.200 188.007 C 155.310 187.884,156.479 186.886,157.797 185.791 C 159.116 184.696,160.443 183.566,160.747 183.279 C 165.717 178.590,177.231 172.280,184.400 170.317 C 190.175 168.735,199.197 168.572,202.600 169.987 C 205.802 171.320,207.276 172.117,209.200 173.555 C 211.560 175.321,214.664 178.827,215.862 181.082 C 216.572 182.418,216.661 182.458,218.200 182.157 C 220.246 181.757,233.016 181.757,234.600 182.157 C 239.741 183.456,244.465 186.838,246.402 190.604 C 247.496 192.731,247.825 200.154,246.912 202.102 C 246.681 202.596,246.252 203.810,245.959 204.800 C 245.666 205.790,244.572 208.349,243.527 210.486 C 240.654 216.364,239.221 217.340,239.206 213.428 C 239.187 208.625,235.320 202.024,231.332 199.987 C 227.072 197.811,211.612 198.861,202.000 201.979 C 201.450 202.157,199.650 202.717,198.000 203.224 C 196.350 203.730,194.829 204.292,194.620 204.472 C 194.411 204.652,194.004 204.800,193.716 204.800 C 193.427 204.800,192.338 205.178,191.296 205.640 C 190.253 206.102,189.040 206.627,188.600 206.806 C 182.801 209.172,169.648 216.698,167.414 218.928 C 167.154 219.188,166.109 220.030,165.091 220.800 C 160.379 224.366,152.173 233.437,147.721 240.000 C 144.912 244.140,140.695 252.456,139.201 256.800 C 138.936 257.570,138.565 258.560,138.376 259.000 C 137.664 260.659,136.400 264.972,135.470 268.915 C 131.471 285.882,132.865 300.275,139.916 314.800 C 141.248 317.543,145.358 324.324,145.978 324.800 C 146.121 324.910,146.670 325.630,147.197 326.400 C 148.602 328.451,151.430 331.777,154.495 334.982 C 157.129 337.736,157.582 338.400,156.828 338.400 C 156.323 338.400,146.238 333.494,144.000 332.159 C 143.010 331.569,141.390 330.633,140.400 330.079 C 136.894 328.117,125.067 319.995,124.000 318.816 C 123.890 318.695,123.080 318.060,122.200 317.406 C 114.864 311.951,103.000 299.723,95.848 290.246 C 88.150 280.044,80.529 266.671,76.960 257.101 C 76.611 256.165,76.180 255.040,76.002 254.600 C 75.824 254.160,75.283 252.720,74.800 251.400 C 74.317 250.080,73.778 248.640,73.601 248.200 C 72.916 246.493,70.981 239.336,70.357 236.200 C 68.799 228.372,68.473 225.911,67.960 218.106 C 67.390 209.441,68.084 196.592,69.552 188.600 C 70.440 183.770,70.822 181.961,71.754 178.188 C 72.636 174.618,75.074 166.745,75.962 164.600 C 77.020 162.045,77.328 161.331,77.647 160.705 C 77.841 160.323,78.000 159.830,78.000 159.610 C 78.000 159.210,82.997 148.909,84.329 146.565 C 85.689 144.169,88.578 139.398,88.788 139.200 C 88.904 139.090,89.270 138.525,89.600 137.943 C 90.241 136.814,90.353 136.659,94.539 131.062 C 98.591 125.644,100.410 123.581,106.595 117.389 C 112.156 111.822,112.747 111.279,116.596 108.198 C 117.694 107.319,118.954 106.268,119.396 105.862 C 120.469 104.877,129.846 98.400,130.199 98.400 C 130.352 98.400,130.954 98.060,131.538 97.644 C 133.314 96.380,136.774 94.477,141.400 92.220 C 148.991 88.517,150.960 87.672,155.441 86.199 C 157.839 85.411,160.113 84.594,160.495 84.383 C 160.877 84.172,161.631 84.000,162.171 84.000 C 162.711 84.000,163.264 83.820,163.400 83.600 C 163.536 83.380,164.166 83.200,164.800 83.200 C 165.434 83.200,166.052 83.040,166.173 82.844 C 166.294 82.649,166.979 82.388,167.696 82.266 C 168.413 82.144,169.900 81.846,171.000 81.604 C 183.646 78.818,199.296 77.724,211.000 78.808 M322.000 159.628 C 322.000 159.837,322.339 160.772,322.753 161.704 C 323.167 162.637,323.725 164.030,323.993 164.800 C 324.261 165.570,324.631 166.560,324.814 167.000 C 326.303 170.574,328.595 179.061,329.945 186.000 C 330.181 187.210,330.478 188.740,330.606 189.400 C 332.953 201.496,332.556 225.517,329.799 238.200 C 328.143 245.824,326.099 253.345,324.800 256.600 C 324.624 257.040,324.261 258.030,323.993 258.800 C 323.725 259.570,323.271 260.740,322.984 261.400 C 322.697 262.060,322.109 263.500,321.676 264.600 C 318.539 272.581,309.423 287.951,303.905 294.564 C 287.780 313.891,268.471 327.970,247.400 335.766 C 245.200 336.580,243.087 337.416,242.705 337.623 C 242.323 337.830,241.736 338.000,241.400 338.000 C 241.064 338.000,240.477 338.165,240.095 338.366 C 237.580 339.692,225.501 342.608,216.600 344.039 C 207.883 345.439,194.282 345.876,189.600 344.905 C 184.764 343.902,183.663 343.607,180.239 342.395 C 149.118 331.380,132.951 294.829,146.095 265.200 C 146.534 264.210,147.159 262.770,147.484 262.000 C 153.482 247.785,165.850 232.938,179.753 223.262 C 181.759 221.866,183.670 220.619,184.000 220.491 C 184.330 220.363,184.690 220.145,184.800 220.007 C 185.042 219.703,193.316 215.589,195.002 214.935 C 209.160 209.441,222.569 208.852,229.392 213.425 C 235.382 217.440,236.164 219.741,231.219 218.804 C 223.859 217.408,207.968 220.114,200.600 224.018 C 189.635 229.828,183.503 235.627,179.533 243.941 C 175.190 253.038,175.616 266.739,180.457 273.662 C 180.866 274.246,181.200 274.863,181.200 275.034 C 181.200 275.205,182.175 276.617,183.367 278.172 C 189.769 286.527,199.093 292.496,210.321 295.426 C 228.252 300.104,245.090 296.935,266.039 284.940 C 267.711 283.983,269.214 283.200,269.378 283.200 C 269.785 283.200,275.725 279.040,278.194 277.026 C 279.290 276.132,280.530 275.130,280.949 274.800 C 284.631 271.897,291.704 264.806,295.314 260.400 C 296.665 258.750,297.878 257.310,298.008 257.200 C 298.370 256.894,304.400 248.098,304.400 247.876 C 304.400 247.769,305.094 246.538,305.943 245.141 C 307.298 242.910,310.612 236.252,311.638 233.700 C 312.573 231.374,312.751 230.909,313.200 229.600 C 313.464 228.830,313.834 227.840,314.022 227.400 C 315.133 224.790,318.172 212.194,318.991 206.800 C 319.108 206.030,319.393 204.140,319.626 202.600 C 321.018 193.371,321.692 180.047,321.362 168.244 C 321.164 161.176,321.213 158.761,321.547 158.968 C 321.796 159.121,322.000 159.419,322.000 159.628 " stroke="none" fill="#1c2c6c" fill-rule="evenodd"></path><path id="path2" d="M287.308 39.300 C 287.412 40.235,287.718 42.607,287.988 44.572 C 289.906 58.535,288.604 60.831,271.400 73.817 C 260.962 81.696,259.052 83.767,257.993 88.350 C 257.036 92.491,259.067 102.427,262.614 110.956 C 262.939 111.736,262.799 111.674,257.200 108.532 C 252.754 106.038,246.782 104.400,242.133 104.400 C 236.705 104.400,233.433 106.547,222.672 117.172 C 212.014 127.695,210.847 128.091,202.716 123.955 C 197.522 121.313,203.989 128.492,211.342 133.530 C 230.032 146.337,239.635 146.385,257.387 133.762 C 262.445 130.165,266.468 128.000,268.093 128.000 C 273.027 128.000,285.296 140.666,289.985 150.600 C 296.535 164.476,298.222 187.437,294.408 210.800 C 294.211 212.010,293.845 214.350,293.595 216.000 C 292.411 223.816,288.446 241.395,286.269 248.479 C 285.457 251.120,285.857 251.151,288.224 248.629 C 302.112 233.824,315.281 192.832,313.276 170.642 C 312.044 157.002,308.716 150.232,297.997 139.571 C 291.155 132.766,289.552 130.581,286.863 124.400 C 284.746 119.530,283.843 106.800,285.267 101.877 C 285.721 100.305,288.604 95.640,293.719 88.200 C 303.556 73.892,306.718 64.790,304.364 57.566 C 303.605 55.239,301.749 51.299,301.177 50.800 C 301.050 50.690,300.344 49.714,299.607 48.631 C 297.156 45.031,288.928 37.600,287.392 37.600 C 287.242 37.600,287.204 38.365,287.308 39.300 M321.200 160.015 C 321.200 160.244,321.396 163.529,321.635 167.315 C 322.782 185.461,319.702 210.929,314.467 226.600 C 307.192 248.379,292.749 267.461,273.400 280.857 C 266.843 285.397,253.150 292.163,246.200 294.297 C 245.100 294.635,243.439 295.153,242.508 295.448 C 218.768 302.980,186.770 290.923,179.213 271.600 C 178.912 270.830,178.536 270.020,178.377 269.800 C 178.219 269.580,177.685 267.780,177.191 265.800 C 173.066 249.264,181.965 233.033,200.000 224.194 C 203.751 222.355,204.064 222.225,207.000 221.280 C 214.357 218.911,216.416 218.620,225.859 218.609 L 234.317 218.600 233.790 217.600 C 233.177 216.436,232.457 215.798,229.545 213.838 C 219.364 206.981,196.810 211.488,179.302 223.879 C 160.508 237.179,146.003 258.544,142.559 278.000 C 136.048 314.771,167.665 348.898,204.800 345.185 C 221.407 343.524,234.949 340.514,246.300 335.961 C 246.795 335.762,247.605 335.438,248.100 335.241 C 248.595 335.043,249.630 334.612,250.400 334.282 C 251.170 333.953,252.790 333.267,254.000 332.758 C 283.270 320.448,307.440 295.814,321.950 263.502 C 323.809 259.363,327.888 246.249,328.950 241.000 C 329.084 240.340,329.380 238.900,329.609 237.800 C 332.425 224.251,332.780 203.557,330.429 190.000 C 329.686 185.716,329.536 184.965,328.751 181.600 C 327.157 174.771,325.208 168.452,322.553 161.500 C 321.888 159.758,321.200 159.003,321.200 160.015 " stroke="none" fill="#78cff6" fill-rule="evenodd"></path><path id="path3" d="M193.600 79.036 C 193.270 79.114,190.750 79.373,188.000 79.611 C 181.878 80.141,176.873 80.875,172.000 81.957 C 171.010 82.177,169.660 82.475,169.000 82.618 C 167.490 82.947,158.573 85.556,157.443 86.000 C 156.979 86.182,155.070 86.904,153.200 87.604 C 151.330 88.304,149.440 89.022,149.000 89.201 C 147.208 89.927,136.475 95.260,134.800 96.256 C 133.810 96.844,132.640 97.523,132.200 97.764 C 131.760 98.004,130.558 98.786,129.528 99.501 C 128.498 100.215,127.555 100.800,127.433 100.800 C 127.310 100.800,126.892 101.061,126.505 101.379 C 126.117 101.698,124.383 102.966,122.651 104.197 C 113.300 110.844,101.053 122.860,94.694 131.627 C 90.907 136.848,89.583 138.826,87.205 142.812 C 82.948 149.949,79.593 156.798,77.218 163.200 C 76.524 165.070,75.786 166.913,75.578 167.295 C 75.370 167.677,75.200 168.316,75.200 168.715 C 75.200 169.114,75.051 169.611,74.870 169.820 C 74.085 170.722,71.189 182.162,70.012 189.008 C 66.977 206.663,68.175 228.930,72.981 244.200 C 73.258 245.080,73.723 246.610,74.014 247.600 C 74.306 248.590,74.666 249.580,74.814 249.800 C 74.963 250.020,75.183 250.560,75.303 251.000 C 82.664 277.974,111.898 313.090,140.800 329.676 C 145.140 332.167,145.993 332.632,149.400 334.370 C 155.981 337.727,156.245 337.753,153.489 334.776 C 145.531 326.183,140.109 317.802,136.686 308.800 C 135.788 306.441,135.324 304.958,134.370 301.400 C 132.383 293.992,132.023 281.330,133.625 275.154 C 133.831 274.358,134.000 273.291,134.000 272.782 C 134.000 272.273,134.168 271.304,134.373 270.628 C 134.578 269.953,134.925 268.680,135.145 267.800 C 141.832 241.003,158.608 220.621,184.236 208.157 C 186.676 206.971,188.793 206.000,188.940 206.000 C 189.088 206.000,189.972 205.653,190.904 205.229 C 197.469 202.243,208.717 199.417,218.200 198.372 C 231.434 196.912,237.781 201.181,239.778 212.886 C 240.210 215.419,240.697 214.993,243.169 209.916 C 252.913 189.907,243.551 179.673,218.200 182.620 L 216.200 182.853 215.287 181.107 C 211.383 173.640,201.098 168.422,192.230 169.408 C 179.436 170.829,171.329 175.130,153.800 189.795 C 141.394 200.174,137.515 202.830,131.296 205.203 C 125.206 207.527,119.274 203.423,116.840 195.200 C 116.547 194.210,116.131 192.860,115.917 192.200 C 114.249 187.060,115.912 167.771,118.426 163.105 C 118.632 162.723,118.800 162.136,118.800 161.800 C 118.800 161.464,118.966 160.877,119.169 160.495 C 119.372 160.113,120.122 158.270,120.836 156.400 C 123.481 149.472,132.145 133.815,133.637 133.267 C 133.837 133.193,134.000 132.974,134.000 132.778 C 134.000 132.345,137.994 127.004,141.251 123.083 C 147.504 115.553,155.228 108.771,162.194 104.694 C 163.621 103.859,174.645 98.442,175.800 98.008 C 176.240 97.842,177.050 97.520,177.600 97.291 C 182.598 95.210,192.580 92.160,199.000 90.751 C 209.900 88.360,223.420 86.635,234.898 86.171 C 238.361 86.031,241.103 85.767,240.990 85.584 C 240.584 84.928,230.703 82.381,222.600 80.845 C 214.775 79.361,196.913 78.247,193.600 79.036 " stroke="none" fill="#f85350" fill-rule="evenodd"></path><path id="path4" d="M286.800 38.400 C 286.800 39.060,286.870 39.600,286.955 39.600 C 287.040 39.600,287.188 39.060,287.285 38.400 C 287.382 37.740,287.313 37.200,287.131 37.200 C 286.949 37.200,286.800 37.740,286.800 38.400 M287.693 44.000 C 287.693 44.770,287.775 45.085,287.876 44.700 C 287.976 44.315,287.976 43.685,287.876 43.300 C 287.775 42.915,287.693 43.230,287.693 44.000 M288.093 47.600 C 288.093 48.370,288.175 48.685,288.276 48.300 C 288.376 47.915,288.376 47.285,288.276 46.900 C 288.175 46.515,288.093 46.830,288.093 47.600 M305.314 62.600 C 305.317 63.700,305.395 64.103,305.487 63.495 C 305.579 62.886,305.577 61.986,305.482 61.495 C 305.387 61.003,305.311 61.500,305.314 62.600 M272.800 72.449 C 271.406 73.671,271.405 73.672,272.688 72.819 C 273.396 72.348,274.082 71.791,274.212 71.581 C 274.597 70.957,274.277 71.154,272.800 72.449 M265.985 77.629 L 264.600 78.858 266.100 77.781 C 267.426 76.830,267.857 76.400,267.485 76.400 C 267.422 76.400,266.747 76.953,265.985 77.629 M190.200 78.684 C 186.388 78.952,175.576 80.596,171.000 81.604 C 169.900 81.846,168.413 82.144,167.696 82.266 C 166.979 82.388,166.294 82.649,166.173 82.844 C 166.052 83.040,165.434 83.200,164.800 83.200 C 164.166 83.200,163.536 83.380,163.400 83.600 C 163.264 83.820,162.711 84.000,162.171 84.000 C 161.631 84.000,160.877 84.172,160.495 84.383 C 160.113 84.594,157.839 85.411,155.441 86.199 C 150.960 87.672,148.991 88.517,141.400 92.220 C 136.774 94.477,133.314 96.380,131.538 97.644 C 130.954 98.060,130.352 98.400,130.199 98.400 C 129.846 98.400,120.469 104.877,119.396 105.862 C 118.954 106.268,117.694 107.319,116.596 108.198 C 112.747 111.279,112.156 111.822,106.595 117.389 C 100.410 123.581,98.591 125.644,94.539 131.062 C 90.353 136.659,90.241 136.814,89.600 137.943 C 89.270 138.525,88.904 139.090,88.788 139.200 C 88.578 139.398,85.689 144.169,84.329 146.565 C 82.997 148.909,78.000 159.210,78.000 159.610 C 78.000 159.830,77.841 160.323,77.647 160.705 C 77.328 161.331,77.020 162.045,75.962 164.600 C 74.372 168.440,71.381 178.977,70.341 184.400 C 68.787 192.508,68.471 195.123,67.960 204.106 C 67.248 216.632,68.447 229.409,71.385 240.600 C 72.300 244.081,73.232 247.281,73.601 248.200 C 73.778 248.640,74.317 250.080,74.800 251.400 C 75.283 252.720,75.824 254.160,76.002 254.600 C 76.180 255.040,76.611 256.165,76.960 257.101 C 80.529 266.671,88.150 280.044,95.848 290.246 C 103.000 299.723,114.864 311.951,122.200 317.406 C 123.080 318.060,123.890 318.695,124.000 318.816 C 125.067 319.995,136.894 328.117,140.400 330.079 C 141.390 330.633,143.010 331.569,144.000 332.159 C 146.238 333.494,156.323 338.400,156.828 338.400 C 157.582 338.400,157.129 337.736,154.495 334.982 C 151.430 331.777,148.602 328.451,147.197 326.400 C 146.670 325.630,146.121 324.910,145.978 324.800 C 142.645 322.241,136.239 307.617,134.151 297.800 C 133.289 293.751,133.184 280.048,133.982 275.800 C 135.123 269.722,137.228 261.675,138.376 259.000 C 138.565 258.560,138.936 257.570,139.201 256.800 C 143.394 244.610,155.054 228.397,165.091 220.800 C 166.109 220.030,167.154 219.188,167.414 218.928 C 169.648 216.698,182.801 209.172,188.600 206.806 C 189.040 206.627,190.253 206.102,191.296 205.640 C 192.338 205.178,193.427 204.800,193.716 204.800 C 194.004 204.800,194.411 204.652,194.620 204.472 C 194.829 204.292,196.350 203.730,198.000 203.224 C 199.650 202.717,201.450 202.157,202.000 201.979 C 211.612 198.861,227.072 197.811,231.332 199.987 C 235.320 202.024,239.187 208.625,239.206 213.428 C 239.221 217.340,240.654 216.364,243.527 210.486 C 244.572 208.349,245.666 205.790,245.959 204.800 C 246.252 203.810,246.681 202.596,246.912 202.102 C 247.825 200.154,247.496 192.731,246.402 190.604 C 244.465 186.838,239.741 183.456,234.600 182.157 C 233.016 181.757,220.246 181.757,218.200 182.157 C 216.661 182.458,216.572 182.418,215.862 181.082 C 213.877 177.347,209.012 172.798,205.200 171.115 C 202.213 169.796,201.855 169.666,200.400 169.368 C 198.290 168.937,190.072 169.029,187.800 169.510 C 178.943 171.385,166.810 177.560,160.747 183.279 C 160.443 183.566,159.116 184.696,157.797 185.791 C 156.479 186.886,155.310 187.884,155.200 188.007 C 155.090 188.131,153.020 189.841,150.600 191.806 C 148.180 193.772,146.110 195.475,146.000 195.590 C 143.748 197.954,133.204 204.400,131.590 204.400 C 131.182 204.400,130.736 204.580,130.600 204.800 C 130.129 205.562,125.393 205.264,123.738 204.368 C 121.610 203.217,119.379 200.352,118.000 197.000 C 117.729 196.340,117.348 195.487,117.153 195.105 C 116.959 194.723,116.800 193.879,116.800 193.229 C 116.800 192.579,116.638 191.947,116.440 191.825 C 115.222 191.072,115.845 172.506,117.193 169.400 C 117.557 168.561,117.911 167.084,118.273 164.896 C 118.391 164.179,118.649 163.494,118.844 163.373 C 119.040 163.252,119.200 162.801,119.200 162.371 C 119.200 161.941,119.363 161.277,119.562 160.895 C 119.761 160.513,120.788 158.040,121.844 155.400 C 125.873 145.328,134.796 130.974,141.862 123.200 C 142.562 122.430,143.555 121.260,144.067 120.600 C 145.563 118.675,149.217 115.149,153.837 111.173 C 156.103 109.222,164.095 104.000,164.815 104.000 C 164.990 104.000,165.193 103.856,165.267 103.680 C 165.418 103.318,171.568 100.316,174.600 99.124 C 175.700 98.691,177.230 98.063,178.000 97.728 C 180.465 96.655,180.969 96.462,182.600 95.971 C 183.480 95.706,184.560 95.359,185.000 95.199 C 188.207 94.037,196.003 91.909,199.800 91.160 C 200.900 90.943,202.610 90.584,203.600 90.361 C 212.171 88.438,226.914 86.836,236.250 86.812 C 238.918 86.806,241.663 86.688,242.350 86.550 C 243.723 86.275,244.059 85.600,242.824 85.600 C 242.397 85.600,241.936 85.420,241.800 85.200 C 241.664 84.980,241.169 84.800,240.700 84.800 C 239.875 84.800,239.872 84.818,240.605 85.354 C 241.267 85.838,240.555 85.941,234.981 86.167 C 223.416 86.635,209.927 88.354,199.000 90.751 C 192.681 92.137,183.156 95.038,177.700 97.237 C 177.205 97.437,176.395 97.759,175.900 97.954 C 174.570 98.477,163.595 103.874,162.194 104.694 C 155.228 108.771,147.504 115.553,141.251 123.083 C 137.994 127.004,134.000 132.345,134.000 132.778 C 134.000 132.974,133.837 133.193,133.637 133.267 C 132.145 133.815,123.481 149.472,120.836 156.400 C 120.122 158.270,119.372 160.113,119.169 160.495 C 118.966 160.877,118.800 161.464,118.800 161.800 C 118.800 162.136,118.632 162.723,118.426 163.105 C 115.912 167.771,114.249 187.060,115.917 192.200 C 116.131 192.860,116.547 194.210,116.840 195.200 C 119.274 203.423,125.206 207.527,131.296 205.203 C 137.515 202.830,141.394 200.174,153.800 189.795 C 171.329 175.130,179.436 170.829,192.230 169.408 C 201.098 168.422,211.383 173.640,215.287 181.107 L 216.200 182.853 218.200 182.620 C 243.551 179.673,252.913 189.907,243.169 209.916 C 240.697 214.993,240.210 215.419,239.778 212.886 C 237.378 198.814,229.643 195.668,208.000 199.957 C 203.519 200.845,194.277 203.695,190.904 205.229 C 189.972 205.653,189.088 206.000,188.940 206.000 C 188.793 206.000,186.676 206.971,184.236 208.157 C 158.608 220.621,141.832 241.003,135.145 267.800 C 134.925 268.680,134.578 269.953,134.373 270.628 C 134.168 271.304,134.000 272.273,134.000 272.782 C 134.000 273.291,133.831 274.358,133.625 275.154 C 132.280 280.341,132.288 290.858,133.642 298.000 C 136.129 311.112,142.490 322.900,153.489 334.776 C 156.245 337.753,155.981 337.727,149.400 334.370 C 145.993 332.632,145.140 332.167,140.800 329.676 C 111.898 313.090,82.664 277.974,75.303 251.000 C 75.183 250.560,74.963 250.020,74.814 249.800 C 74.666 249.580,74.306 248.590,74.014 247.600 C 73.723 246.610,73.258 245.080,72.981 244.200 C 66.856 224.739,66.801 198.067,72.843 176.200 C 74.255 171.090,74.536 170.203,74.870 169.820 C 75.051 169.611,75.200 169.114,75.200 168.715 C 75.200 168.316,75.370 167.677,75.578 167.295 C 75.786 166.913,76.524 165.070,77.218 163.200 C 79.593 156.798,82.948 149.949,87.205 142.812 C 89.583 138.826,90.907 136.848,94.694 131.627 C 101.053 122.860,113.300 110.844,122.651 104.197 C 124.383 102.966,126.117 101.698,126.505 101.379 C 126.892 101.061,127.310 100.800,127.433 100.800 C 127.555 100.800,128.498 100.215,129.528 99.501 C 130.558 98.786,131.760 98.004,132.200 97.764 C 132.640 97.523,133.810 96.844,134.800 96.256 C 136.475 95.260,147.208 89.927,149.000 89.201 C 149.440 89.022,151.330 88.304,153.200 87.604 C 155.070 86.904,156.979 86.182,157.443 86.000 C 158.573 85.556,167.490 82.947,169.000 82.618 C 169.660 82.475,171.010 82.177,172.000 81.957 C 193.870 77.101,214.532 77.951,238.963 84.715 C 239.431 84.845,239.626 84.765,239.467 84.509 C 239.326 84.280,238.713 83.996,238.105 83.879 C 237.497 83.762,236.280 83.459,235.400 83.206 C 233.862 82.765,232.451 82.406,229.000 81.581 C 218.243 79.007,202.427 77.827,190.200 78.684 M261.544 81.500 C 259.553 83.571,258.399 85.146,258.401 85.789 C 258.402 86.015,258.779 85.570,259.239 84.800 C 259.700 84.030,260.907 82.545,261.923 81.500 C 262.939 80.455,263.680 79.600,263.570 79.600 C 263.460 79.600,262.548 80.455,261.544 81.500 M258.400 109.164 C 258.950 109.614,259.580 109.983,259.800 109.985 C 260.228 109.988,259.505 109.434,258.200 108.760 C 257.669 108.485,257.736 108.621,258.400 109.164 M284.493 111.600 C 284.493 112.370,284.575 112.685,284.676 112.300 C 284.776 111.915,284.776 111.285,284.676 110.900 C 284.575 110.515,284.493 110.830,284.493 111.600 M223.789 115.700 L 221.000 118.600 223.900 115.811 C 226.594 113.220,226.983 112.800,226.689 112.800 C 226.628 112.800,225.323 114.105,223.789 115.700 M266.400 128.395 C 265.991 128.655,266.310 128.699,267.400 128.532 C 269.377 128.229,269.714 127.998,268.167 128.006 C 267.525 128.009,266.730 128.184,266.400 128.395 M277.000 133.600 C 277.859 134.480,278.652 135.200,278.762 135.200 C 278.872 135.200,278.259 134.480,277.400 133.600 C 276.541 132.720,275.748 132.000,275.638 132.000 C 275.528 132.000,276.141 132.720,277.000 133.600 M209.600 132.546 C 209.600 132.656,210.140 133.130,210.800 133.600 C 211.460 134.070,212.000 134.364,212.000 134.254 C 212.000 134.144,211.460 133.670,210.800 133.200 C 210.140 132.730,209.600 132.436,209.600 132.546 M294.400 136.200 C 295.146 136.970,295.847 137.600,295.957 137.600 C 296.067 137.600,295.546 136.970,294.800 136.200 C 294.054 135.430,293.353 134.800,293.243 134.800 C 293.133 134.800,293.654 135.430,294.400 136.200 M300.383 141.700 C 301.364 142.745,302.219 143.600,302.283 143.600 C 302.584 143.600,302.266 143.241,300.500 141.583 L 298.600 139.800 300.383 141.700 M244.800 141.400 C 244.250 141.714,243.980 141.972,244.200 141.972 C 244.420 141.972,245.050 141.714,245.600 141.400 C 246.150 141.086,246.420 140.828,246.200 140.828 C 245.980 140.828,245.350 141.086,244.800 141.400 M302.800 144.264 C 302.800 144.482,303.295 145.097,303.900 145.630 L 305.000 146.600 304.000 145.400 C 303.450 144.740,302.955 144.125,302.900 144.033 C 302.845 143.942,302.800 144.045,302.800 144.264 M311.844 161.400 C 312.173 162.871,312.402 163.190,312.394 162.167 C 312.391 161.745,312.205 161.130,311.982 160.800 C 311.685 160.362,311.648 160.524,311.844 161.400 M294.068 163.600 C 294.088 164.639,294.718 166.346,294.732 165.400 C 294.738 164.960,294.589 164.240,294.400 163.800 C 294.189 163.310,294.061 163.232,294.068 163.600 M321.331 166.200 C 321.333 167.740,321.405 168.321,321.492 167.491 C 321.579 166.661,321.577 165.401,321.489 164.691 C 321.400 163.981,321.329 164.660,321.331 166.200 M312.893 166.400 C 312.893 167.170,312.975 167.485,313.076 167.100 C 313.176 166.715,313.176 166.085,313.076 165.700 C 312.975 165.315,312.893 165.630,312.893 166.400 M313.301 169.800 C 313.305 170.680,313.387 170.993,313.483 170.495 C 313.579 169.998,313.575 169.278,313.475 168.895 C 313.375 168.513,313.296 168.920,313.301 169.800 M295.309 170.800 C 295.309 171.790,295.387 172.195,295.482 171.700 C 295.578 171.205,295.578 170.395,295.482 169.900 C 295.387 169.405,295.309 169.810,295.309 170.800 M321.744 174.400 C 321.744 176.490,321.812 177.345,321.894 176.300 C 321.976 175.255,321.976 173.545,321.894 172.500 C 321.812 171.455,321.744 172.310,321.744 174.400 M296.165 185.000 C 296.166 188.960,296.226 190.526,296.298 188.480 C 296.371 186.434,296.371 183.194,296.298 181.280 C 296.224 179.366,296.165 181.040,296.165 185.000 M313.301 181.800 C 313.305 182.680,313.387 182.993,313.483 182.495 C 313.579 181.998,313.575 181.278,313.475 180.895 C 313.375 180.513,313.296 180.920,313.301 181.800 M321.331 183.800 C 321.333 185.340,321.405 185.921,321.492 185.091 C 321.579 184.261,321.577 183.001,321.489 182.291 C 321.400 181.581,321.329 182.260,321.331 183.800 M328.856 182.000 C 328.856 182.330,329.011 182.960,329.200 183.400 C 329.417 183.904,329.544 183.978,329.544 183.600 C 329.544 183.270,329.389 182.640,329.200 182.200 C 328.983 181.696,328.856 181.622,328.856 182.000 M312.909 185.600 C 312.909 186.590,312.987 186.995,313.082 186.500 C 313.178 186.005,313.178 185.195,313.082 184.700 C 312.987 184.205,312.909 184.610,312.909 185.600 M329.656 186.000 C 329.656 186.330,329.811 186.960,330.000 187.400 C 330.217 187.904,330.344 187.978,330.344 187.600 C 330.344 187.270,330.189 186.640,330.000 186.200 C 329.783 185.696,329.656 185.622,329.656 186.000 M330.662 191.400 C 330.796 192.280,330.972 193.075,331.053 193.167 C 331.356 193.510,331.129 191.368,330.781 190.600 C 330.529 190.042,330.493 190.285,330.662 191.400 M320.493 194.800 C 320.493 195.570,320.575 195.885,320.676 195.500 C 320.776 195.115,320.776 194.485,320.676 194.100 C 320.575 193.715,320.493 194.030,320.493 194.800 M295.709 196.400 C 295.709 197.390,295.787 197.795,295.882 197.300 C 295.978 196.805,295.978 195.995,295.882 195.500 C 295.787 195.005,295.709 195.410,295.709 196.400 M311.246 195.667 C 311.221 196.034,311.096 196.664,310.970 197.067 C 310.752 197.762,310.763 197.763,311.197 197.087 C 311.448 196.696,311.573 196.066,311.473 195.687 C 311.311 195.068,311.288 195.066,311.246 195.667 M331.714 199.400 C 331.717 200.500,331.795 200.903,331.887 200.295 C 331.979 199.686,331.977 198.786,331.882 198.295 C 331.787 197.803,331.711 198.300,331.714 199.400 M295.309 201.200 C 295.309 202.190,295.387 202.595,295.482 202.100 C 295.578 201.605,295.578 200.795,295.482 200.300 C 295.387 199.805,295.309 200.210,295.309 201.200 M319.056 205.684 C 318.921 206.188,318.827 206.960,318.846 207.400 C 318.865 207.840,319.045 207.498,319.246 206.640 C 319.636 204.978,319.470 204.140,319.056 205.684 M332.151 211.600 C 332.151 214.130,332.216 215.165,332.296 213.900 C 332.375 212.635,332.375 210.565,332.296 209.300 C 332.216 208.035,332.151 209.070,332.151 211.600 M214.482 210.696 C 215.958 210.773,218.478 210.773,220.082 210.697 C 221.687 210.621,220.480 210.558,217.400 210.558 C 214.320 210.557,213.007 210.619,214.482 210.696 M293.693 214.000 C 293.693 214.770,293.775 215.085,293.876 214.700 C 293.976 214.315,293.976 213.685,293.876 213.300 C 293.775 212.915,293.693 213.230,293.693 214.000 M292.622 219.822 C 292.472 220.625,292.428 221.362,292.526 221.460 C 292.624 221.557,292.827 220.981,292.978 220.178 C 293.128 219.375,293.172 218.638,293.074 218.540 C 292.976 218.443,292.773 219.019,292.622 219.822 M216.700 219.082 C 217.195 219.178,218.005 219.178,218.500 219.082 C 218.995 218.987,218.590 218.909,217.600 218.909 C 216.610 218.909,216.205 218.987,216.700 219.082 M211.200 220.006 C 210.778 220.282,211.015 220.323,212.000 220.142 C 213.725 219.825,214.051 219.598,212.767 219.606 C 212.235 219.609,211.530 219.789,211.200 220.006 M331.714 223.400 C 331.717 224.500,331.795 224.903,331.887 224.295 C 331.979 223.686,331.977 222.786,331.882 222.295 C 331.787 221.803,331.711 222.300,331.714 223.400 M175.985 226.029 L 174.600 227.258 176.100 226.181 C 177.426 225.230,177.857 224.800,177.485 224.800 C 177.422 224.800,176.747 225.353,175.985 226.029 M169.186 231.900 L 167.000 234.200 169.300 232.014 C 171.437 229.982,171.783 229.600,171.486 229.600 C 171.424 229.600,170.389 230.635,169.186 231.900 M184.975 235.300 L 183.800 236.600 185.100 235.425 C 186.312 234.330,186.584 234.000,186.275 234.000 C 186.206 234.000,185.621 234.585,184.975 235.300 M330.046 235.667 C 330.021 236.034,329.896 236.664,329.770 237.067 C 329.552 237.762,329.563 237.763,329.997 237.087 C 330.248 236.696,330.373 236.066,330.273 235.687 C 330.111 235.068,330.088 235.066,330.046 235.667 M163.381 237.700 L 161.800 239.400 163.500 237.819 C 164.435 236.949,165.200 236.184,165.200 236.119 C 165.200 235.816,164.852 236.119,163.381 237.700 M288.649 238.215 C 288.512 238.573,288.415 239.166,288.434 239.533 C 288.453 239.900,288.627 239.669,288.821 239.020 C 289.198 237.758,289.065 237.133,288.649 238.215 M329.029 240.229 C 328.881 240.815,328.838 241.372,328.932 241.466 C 329.027 241.560,329.224 241.158,329.371 240.571 C 329.519 239.985,329.562 239.428,329.468 239.334 C 329.373 239.240,329.176 239.642,329.029 240.229 M158.951 242.900 C 157.770 244.248,157.080 245.200,157.284 245.200 C 157.384 245.200,158.045 244.480,158.752 243.600 C 160.125 241.892,160.264 241.401,158.951 242.900 M287.375 249.700 L 286.200 251.000 287.500 249.825 C 288.215 249.179,288.800 248.594,288.800 248.525 C 288.800 248.216,288.470 248.488,287.375 249.700 M176.093 258.000 C 176.093 258.770,176.175 259.085,176.276 258.700 C 176.376 258.315,176.376 257.685,176.276 257.300 C 176.175 256.915,176.093 257.230,176.093 258.000 M291.785 264.500 L 289.800 266.600 291.900 264.615 C 293.851 262.771,294.183 262.400,293.885 262.400 C 293.822 262.400,292.877 263.345,291.785 264.500 M284.530 271.609 C 283.391 272.704,282.588 273.600,282.745 273.600 C 282.902 273.600,283.917 272.700,285.000 271.600 C 287.544 269.018,287.217 269.024,284.530 271.609 M141.720 282.800 C 141.720 284.010,141.795 284.505,141.887 283.900 C 141.978 283.295,141.978 282.305,141.887 281.700 C 141.795 281.095,141.720 281.590,141.720 282.800 M186.800 282.600 C 187.546 283.370,188.247 284.000,188.357 284.000 C 188.467 284.000,187.946 283.370,187.200 282.600 C 186.454 281.830,185.753 281.200,185.643 281.200 C 185.533 281.200,186.054 281.830,186.800 282.600 M267.900 283.829 C 266.349 284.670,266.525 284.961,268.100 284.159 C 269.608 283.393,269.875 283.194,269.367 283.216 C 269.165 283.225,268.505 283.501,267.900 283.829 M141.720 292.000 C 141.720 293.210,141.795 293.705,141.887 293.100 C 141.978 292.495,141.978 291.505,141.887 290.900 C 141.795 290.295,141.720 290.790,141.720 292.000 M305.200 292.400 C 304.503 293.280,304.023 294.000,304.133 294.000 C 304.243 294.000,304.903 293.280,305.600 292.400 C 306.297 291.520,306.777 290.800,306.667 290.800 C 306.557 290.800,305.897 291.520,305.200 292.400 M220.100 297.476 C 220.485 297.576,221.115 297.576,221.500 297.476 C 221.885 297.375,221.570 297.293,220.800 297.293 C 220.030 297.293,219.715 297.375,220.100 297.476 M297.781 301.300 L 296.200 303.000 297.900 301.419 C 299.481 299.948,299.784 299.600,299.481 299.600 C 299.416 299.600,298.651 300.365,297.781 301.300 M289.781 309.300 L 288.200 311.000 289.900 309.419 C 291.481 307.948,291.784 307.600,291.481 307.600 C 291.416 307.600,290.651 308.365,289.781 309.300 M279.200 318.049 C 277.806 319.271,277.805 319.272,279.088 318.419 C 279.796 317.948,280.482 317.391,280.612 317.181 C 280.997 316.557,280.677 316.754,279.200 318.049 M152.000 320.800 C 152.896 322.120,153.720 323.200,153.830 323.200 C 153.940 323.200,153.296 322.120,152.400 320.800 C 151.504 319.480,150.680 318.400,150.570 318.400 C 150.460 318.400,151.104 319.480,152.000 320.800 M158.383 328.500 C 160.041 330.266,160.400 330.584,160.400 330.283 C 160.400 330.219,159.545 329.364,158.500 328.383 L 156.600 326.600 158.383 328.500 M262.700 328.427 C 261.875 328.863,261.200 329.308,261.200 329.418 C 261.200 329.527,261.920 329.249,262.800 328.800 C 263.680 328.351,264.400 327.897,264.400 327.792 C 264.400 327.530,264.397 327.531,262.700 328.427 M164.000 333.325 C 164.000 333.424,164.661 334.009,165.468 334.625 C 166.276 335.241,166.811 335.541,166.656 335.291 C 166.340 334.779,164.000 333.047,164.000 333.325 M168.400 336.579 C 168.400 336.689,168.940 337.059,169.600 337.400 C 170.260 337.741,170.800 337.931,170.800 337.821 C 170.800 337.711,170.260 337.341,169.600 337.000 C 168.940 336.659,168.400 336.469,168.400 336.579 M191.400 345.197 C 192.164 345.528,195.114 345.755,194.767 345.456 C 194.675 345.377,193.700 345.209,192.600 345.082 C 191.313 344.933,190.885 344.974,191.400 345.197 M204.400 345.200 C 202.751 345.456,202.717 345.483,204.000 345.517 C 204.770 345.537,206.120 345.405,207.000 345.223 C 209.066 344.796,207.112 344.778,204.400 345.200 " stroke="none" fill="#714e67" fill-rule="evenodd"></path></g></svg>